<svg width="61" height="60" viewBox="0 0 61 60" fill="none" xmlns="http://www.w3.org/2000/svg">
<circle cx="30.5" cy="30" r="29.5" stroke="#312C27"/>
<path d="M23.5 32.584H24.25C24.2499 32.4381 24.2073 32.2955 24.1274 32.1734C24.0475 32.0514 23.9337 31.9553 23.8 31.897L23.5 32.584ZM37.5 32.584L37.2 31.897C37.0663 31.9553 36.9525 32.0514 36.8726 32.1734C36.7927 32.2955 36.7501 32.4381 36.75 32.584H37.5ZM34.25 25C34.25 25.1989 34.329 25.3897 34.4697 25.5303C34.6103 25.671 34.8011 25.75 35 25.75C35.1989 25.75 35.3897 25.671 35.5303 25.5303C35.671 25.3897 35.75 25.1989 35.75 25H34.25ZM25.25 25C25.25 25.1989 25.329 25.3897 25.4697 25.5303C25.6103 25.671 25.8011 25.75 26 25.75C26.1989 25.75 26.3897 25.671 26.5303 25.5303C26.671 25.3897 26.75 25.1989 26.75 25H25.25ZM25.5 22.25C23.975 22.25 22.5125 22.8558 21.4341 23.9341C20.3558 25.0125 19.75 26.475 19.75 28H21.25C21.25 26.8728 21.6978 25.7918 22.4948 24.9948C23.2918 24.1978 24.3728 23.75 25.5 23.75V22.25ZM35.5 23.75C36.6272 23.75 37.7082 24.1978 38.5052 24.9948C39.3022 25.7918 39.75 26.8728 39.75 28H41.25C41.25 26.475 40.6442 25.0125 39.5659 23.9341C38.4875 22.8558 37.025 22.25 35.5 22.25V23.75ZM33.5 39.25H27.5V40.75H33.5V39.25ZM27.5 39.25C26.536 39.25 25.888 39.248 25.405 39.183C24.944 39.121 24.746 39.014 24.616 38.883L23.556 39.945C24.011 40.4 24.578 40.585 25.206 40.67C25.812 40.752 26.578 40.75 27.5 40.75V39.25ZM22.75 36C22.75 36.922 22.748 37.688 22.83 38.294C22.914 38.922 23.1 39.489 23.555 39.944L24.616 38.884C24.486 38.754 24.379 38.556 24.316 38.094C24.252 37.612 24.25 36.964 24.25 36H22.75ZM36.75 36C36.75 36.964 36.748 37.612 36.683 38.095C36.621 38.556 36.514 38.754 36.383 38.884L37.445 39.944C37.9 39.489 38.085 38.922 38.17 38.294C38.252 37.688 38.25 36.922 38.25 36H36.75ZM33.5 40.75C34.422 40.75 35.188 40.752 35.794 40.67C36.422 40.586 36.99 40.4 37.445 39.944L36.384 38.884C36.254 39.014 36.056 39.121 35.594 39.184C35.112 39.248 34.464 39.25 33.5 39.25V40.75ZM25.5 23.75C25.714 23.75 25.923 23.766 26.128 23.796L26.347 22.312C26.0666 22.2706 25.7835 22.2499 25.5 22.25V23.75ZM30.5 19.25C29.4028 19.25 28.3331 19.5936 27.4412 20.2327C26.5492 20.8717 25.8799 21.7741 25.527 22.813L26.947 23.295C27.1992 22.5528 27.6774 21.9082 28.3147 21.4518C28.9519 20.9953 29.7161 20.7499 30.5 20.75V19.25ZM25.527 22.813C25.343 23.3564 25.2494 23.9263 25.25 24.5H26.75C26.75 24.077 26.82 23.672 26.948 23.295L25.527 22.813ZM35.5 22.25C35.213 22.25 34.93 22.271 34.653 22.312L34.873 23.796C35.0806 23.7654 35.2902 23.75 35.5 23.75V22.25ZM30.5 20.75C31.2837 20.7501 32.0477 20.9956 32.6847 21.4521C33.3218 21.9085 33.7999 22.553 34.052 23.295L35.472 22.813C35.1192 21.7742 34.45 20.872 33.5582 20.233C32.6665 19.594 31.5971 19.2502 30.5 19.25V20.75ZM34.052 23.295C34.18 23.672 34.25 24.077 34.25 24.5H35.75C35.75 23.911 35.652 23.344 35.472 22.813L34.053 23.295H34.052ZM24.25 36V32.584H22.75V36H24.25ZM23.8 31.897C23.0419 31.566 22.3968 31.021 21.9439 30.3288C21.4909 29.6366 21.2498 28.8272 21.25 28H19.75C19.7499 29.119 20.0763 30.2137 20.6891 31.1499C21.3019 32.0862 22.1745 32.8233 23.2 33.271L23.8 31.897ZM36.75 32.584V36H38.25V32.584H36.75ZM39.75 28C39.7502 28.8272 39.5091 29.6366 39.0561 30.3288C38.6032 31.021 37.9581 31.566 37.2 31.897L37.8 33.271C38.8255 32.8233 39.6981 32.0862 40.3109 31.1499C40.9237 30.2137 41.2501 29.119 41.25 28H39.75ZM34.25 24.5V25H35.75V24.5H34.25ZM25.25 24.5V25H26.75V24.5H25.25Z" fill="#1F1711"/>
<path opacity="0.7" d="M30.5 27.9951L29.981 28.5371C30.1206 28.6709 30.3066 28.7456 30.5 28.7456C30.6934 28.7456 30.8794 28.6709 31.019 28.5371L30.5 27.9951ZM29.986 31.0641C29.569 30.7581 29.108 30.3741 28.759 29.9721C28.391 29.5461 28.25 29.2151 28.25 29.0001H26.75C26.75 29.7701 27.191 30.4511 27.625 30.9531C28.078 31.4771 28.639 31.9361 29.099 32.2731L29.986 31.0641ZM28.25 29.0001C28.25 28.4241 28.513 28.1741 28.742 28.0931C28.992 28.0051 29.456 28.0331 29.982 28.5371L31.019 27.4531C30.194 26.6631 29.158 26.3581 28.246 26.6781C27.312 27.0051 26.75 27.9031 26.75 29.0001H28.25ZM31.9 32.2741C32.36 31.9361 32.922 31.4771 33.375 30.9531C33.809 30.4511 34.25 29.7701 34.25 29.0001H32.75C32.75 29.2151 32.609 29.5461 32.24 29.9721C31.892 30.3751 31.431 30.7581 31.014 31.0641L31.901 32.2741H31.9ZM34.25 29.0001C34.25 27.9031 33.687 27.0051 32.754 26.6781C31.842 26.3581 30.806 26.6641 29.981 27.4531L31.019 28.5371C31.544 28.0331 32.008 28.0051 32.259 28.0931C32.487 28.1731 32.75 28.4241 32.75 29.0001H34.25ZM29.1 32.2741C29.468 32.5441 29.882 32.8811 30.5 32.8811V31.3811C30.476 31.3811 30.46 31.3811 30.406 31.3521C30.26 31.2651 30.1197 31.1689 29.986 31.0641L29.099 32.2741H29.1ZM31.014 31.0641C30.8803 31.1689 30.74 31.2651 30.594 31.3521C30.54 31.3811 30.524 31.3811 30.5 31.3811V32.8811C31.118 32.8811 31.532 32.5441 31.9 32.2741L31.014 31.0641Z" fill="#1F1711"/>
<path opacity="0.7" d="M23.5 36H37.5" stroke="#1F1711" stroke-width="1.5" stroke-linecap="round" stroke-linejoin="round"/>
</svg>
